<svg width="136" height="382" viewBox="0 0 136 382" fill="none" xmlns="http://www.w3.org/2000/svg">
<path d="M116.76 32.9463C117.4 31.456 118.187 30.5861 119.377 29.4961C127.391 21.6423 133.062 10.9317 135.47 1.61547e-06L135.917 1.62079e-06C135.94 3.18932 135.955 6.37897 135.965 9.56836C135.97 10.6489 135.975 11.73 135.983 12.8105C136.042 21.1903 136.049 29.6734 134.079 37.8721C133.984 38.272 133.89 38.6719 133.793 39.084C131.714 47.4259 127.994 55.636 122.551 62.3311C121.969 60.5856 122.387 59.2389 122.747 57.4893C124.245 49.5279 123.411 42.5531 118.988 35.6182C118.286 34.6575 117.578 33.8129 116.76 32.9463ZM116.76 349.053C117.403 347.657 118.198 346.517 119.127 345.297C124.178 338.172 123.879 330.584 122.551 322.34C122.401 321.301 122.252 320.263 122.106 319.224C123.761 320.775 124.973 322.319 126.143 324.26C126.433 324.736 126.723 325.212 127.022 325.702C130.428 331.677 132.669 337.979 134.05 344.712C134.137 345.124 134.224 345.536 134.313 345.96C135.955 354.537 136.043 363.255 135.972 371.954C135.968 372.937 135.963 373.92 135.96 374.903C135.95 377.269 135.936 379.634 135.917 381.999C135.084 380.404 134.602 378.835 134.106 377.103C130.812 366.235 124.996 356.88 116.76 349.053ZM85.5757 104.627C88.5432 101.037 91.8142 97.7568 95.354 94.7295C96.3904 93.8358 97.4002 92.9159 98.4117 91.9941C99.9064 90.6431 101.43 89.3544 103.005 88.0986C106.42 85.3308 109.581 82.2915 112.751 79.249C113.031 78.9818 113.311 78.7148 113.6 78.4395C120.987 71.3661 126.421 63.6879 130.571 54.3174C132.755 56.501 132.418 61.3944 132.519 64.3623C132.402 70.3785 129.75 75.7901 125.67 80.1396C124.762 80.9538 123.807 81.6918 122.83 82.4219C122.59 82.6072 122.349 82.7925 122.102 82.9834C120.399 84.2765 118.635 85.3438 116.76 86.373C117.132 86.4603 117.504 86.5478 117.886 86.6377C121.951 87.7172 124.714 89.1576 127.202 92.6025C129.024 95.9537 128.891 100.21 127.986 103.825C127.564 105.017 127.099 106.155 126.561 107.299C126.424 107.594 126.286 107.889 126.145 108.192C125.853 108.792 125.542 109.383 125.224 109.97L124.334 109.97C124.209 109.679 124.084 109.389 123.956 109.09C121.897 104.605 119.086 102.453 114.533 100.62C105.85 97.6401 95.7895 100.228 87.8306 104.008C86.4666 104.627 86.4666 104.627 85.5757 104.627ZM86.021 276.482C86.9627 276.848 87.8885 277.255 88.8052 277.679C96.8901 281.304 106.993 283.345 115.559 280.16C119.193 278.46 122.319 276.209 124.055 272.503C124.147 272.2 124.239 271.897 124.334 271.585L125.224 271.585C127.798 276.465 129.235 280.91 128.12 286.503C127.442 288.527 126.38 289.803 124.779 291.175C124.269 291.643 124.269 291.643 123.749 292.121C121.488 293.697 119.041 294.396 116.315 294.736C116.585 294.883 116.854 295.029 117.132 295.18C123.471 298.776 129.419 304.222 131.448 311.4C132.733 316.932 132.224 321.691 131.461 327.237C130.023 326.518 129.644 324.994 128.983 323.592C123.916 313.192 116.14 304.474 107.405 296.962C106.642 296.277 105.881 295.591 105.122 294.903C103.528 293.47 101.922 292.053 100.305 290.646C98.8627 289.379 97.4397 288.09 96.0152 286.803C95.0794 285.965 94.1321 285.145 93.1773 284.329C91.1964 282.612 89.3755 280.738 87.5435 278.866C86.4835 277.77 86.4832 277.77 85.1304 276.928C85.5713 276.707 85.5713 276.707 86.021 276.482ZM70.4449 248.978C70.3336 241.944 71.6848 235.578 75.7749 229.734C76.4612 231.106 75.9271 232.13 75.5806 233.603C73.9668 241.097 74.8254 248.099 78.8931 254.667C82.3647 259.373 86.9075 262.437 92.7173 263.335C98.8219 263.974 104.027 262.879 108.88 259.035C111.796 256.305 112.997 253.098 113.205 249.159C113.193 247.542 113.021 246.021 112.751 244.427C117.68 246.992 120.663 250.166 122.393 255.563C123.205 260.102 122.438 264.428 120.018 268.329C116.784 272.807 112.226 275.486 106.82 276.649C98.6442 277.805 90.6097 276.45 83.8218 271.558C83.0642 270.981 82.3116 270.396 81.566 269.804C81.0143 269.393 81.0139 269.393 80.4507 268.975C74.809 264.148 71.0537 256.325 70.4449 248.978ZM70.7105 139.389C69.2825 130.129 72.428 121.427 78.4478 114.422C78.7803 114.026 78.7805 114.026 79.1197 113.622C82.5527 109.864 87.4531 107.092 92.2583 105.518C92.9748 105.256 92.9747 105.255 93.7056 104.988C101.006 103.408 108.47 104.093 114.839 108.105C118.954 111.004 121.549 114.311 122.551 119.319C123.012 124.173 122.011 128.424 118.925 132.264C117.321 133.924 115.492 135.309 113.642 136.683C113.348 136.536 113.053 136.389 112.751 136.237C112.824 136.017 112.898 135.797 112.973 135.57C113.809 131.395 112.753 127.649 110.496 124.105C108.785 121.813 106.853 120.528 104.287 119.319C103.836 119.093 103.836 119.093 103.377 118.862C98.7989 116.942 92.8068 117.546 88.2466 119.179C82.0807 121.886 78.6415 126.024 76.2203 132.23C76.0365 132.699 75.8529 133.167 75.6636 133.649C74.321 138.681 74.8179 143.657 75.7749 148.704C75.9253 149.594 76.0741 150.484 76.2203 151.375C73.1415 148.631 71.6063 144.234 70.8746 140.245C70.8206 139.963 70.7661 139.68 70.7105 139.389ZM72.0816 280.543C60.1673 265.178 54.3641 243.153 67.5044 226.646C68.1712 225.885 68.8491 225.133 69.5376 224.392C69.8586 224.04 70.1796 223.689 70.5103 223.327C74.924 218.704 80.8137 214.445 86.9117 212.37C87.3526 212.517 87.7934 212.664 88.2476 212.815C88.01 212.994 87.7727 213.173 87.5279 213.356C84.8201 215.421 82.277 217.622 79.7837 219.939C79.4761 220.218 79.1681 220.496 78.8511 220.782C71.6936 227.524 67.6392 236.886 67.313 246.648C67.1506 259.195 74.9432 270.397 83.3199 279.087C83.9221 279.704 84.5252 280.32 85.1294 280.935C85.6703 281.485 85.6705 281.485 86.2222 282.047C87.3955 283.237 88.5725 284.425 89.7515 285.609C90.1221 285.982 90.4927 286.354 90.8746 286.738C92.4587 288.317 94.0455 289.869 95.7447 291.324C98.0616 293.318 100.222 295.472 102.386 297.628C103.109 298.346 103.836 299.059 104.564 299.772C111.978 307.107 118.865 315.95 119.127 326.82C119.073 332.006 117.389 336.707 113.793 340.479C110.195 343.772 106.376 344.861 101.555 344.75C98.1546 344.455 95.8838 343.069 93.5943 340.594C90.9182 337.405 91.0332 333.875 91.3667 329.908C91.984 327.5 93.41 325.732 95.3511 324.208C97.6049 322.898 99.8768 322.66 102.42 323.035C104.275 323.871 105.594 324.954 106.513 326.792C106.669 329.171 106.716 330.642 105.176 332.58C104.735 332.874 104.295 333.168 103.84 333.471C106.035 333.277 107.19 332.314 108.741 330.799C110.212 327.863 110.095 324.477 109.242 321.36C108.055 318.314 106.437 315.878 104.286 313.436C103.967 313.069 103.648 312.702 103.32 312.324C100.712 309.377 98.0173 306.548 95.0455 303.966C93.1765 302.34 91.3616 300.662 89.5572 298.966C89.2595 298.688 88.9616 298.409 88.6548 298.122C86.6996 296.288 84.7884 294.415 82.9019 292.51C82.5436 292.152 82.1851 291.794 81.816 291.425C81.4393 291.048 81.0624 290.672 80.6744 290.284C80.4142 290.035 80.1543 289.785 79.8863 289.527C77.4106 287.121 75.2348 284.536 73.1011 281.825C72.7646 281.402 72.4283 280.979 72.0816 280.543ZM60.3843 138.613C58.5504 125.119 63.2478 112.405 71.3462 101.729C71.6316 101.363 71.9175 100.997 72.2115 100.62C72.4738 100.272 72.7361 99.9246 73.0064 99.5664C77.6056 93.6136 83.0326 88.0064 88.7398 83.1143C89.8482 82.1342 90.8741 81.0841 91.9107 80.0293C93.0227 78.9375 94.2042 77.9339 95.3853 76.918C96.5354 75.8956 97.6042 74.8033 98.6812 73.7051C99.3858 73.0165 99.3862 73.0166 100.5 72.1543C103.113 69.9993 105.028 67.3417 106.876 64.5293C107.047 64.2723 107.219 64.0158 107.396 63.751C109.57 60.3557 110.062 56.9336 109.632 52.9814C109.086 51.2185 108.3 49.901 107.043 48.5576C105.706 47.9089 104.419 47.7798 102.95 47.6387C103.372 47.8958 103.796 48.1531 104.231 48.418C106.104 49.7656 106.104 49.7662 106.514 51.2012C106.748 52.7463 106.818 53.8132 105.994 55.1797C104.737 56.7298 103.617 57.8848 101.614 58.3242C99.1524 58.5563 97.0696 58.2237 94.9312 56.9883C92.7671 55.0546 91.5184 53.0394 91.2017 50.124C91.1293 46.0172 91.537 42.9145 94.2964 39.6982C96.7939 37.3129 99.7182 36.4635 103.117 36.3135C107.737 36.462 111.686 38.427 114.837 41.752C118.52 46.2405 119.337 51.8034 118.988 57.4336C117.66 65.7082 113.268 72.1334 107.627 78.0693C106.744 79.0064 105.91 79.9524 105.094 80.9473C104.208 81.9989 103.267 82.8883 102.217 83.7764C100.21 85.5133 98.3505 87.3751 96.4908 89.2676C94.3944 91.4008 92.2746 93.455 90.0074 95.4063C85.7671 99.1305 81.8785 103.269 78.4478 107.744C78.1102 108.173 77.7722 108.603 77.4244 109.045C70.6513 117.813 66.4297 127.903 67.5054 139.139C69.3655 150.654 76.9411 160.188 86.2164 166.931C86.8893 167.392 87.5648 167.849 88.2486 168.294C87.2501 168.632 86.6665 168.803 85.647 168.479C85.3703 168.331 85.0933 168.183 84.8081 168.031C84.4975 167.868 84.1868 167.704 83.8667 167.535C83.3762 167.264 83.3757 167.263 82.8755 166.986C82.537 166.802 82.198 166.618 81.8492 166.428C72.3297 161.15 65.0644 153.605 61.4605 143.247C61.1383 142.1 60.8561 140.969 60.6285 139.8C60.5079 139.213 60.5074 139.212 60.3843 138.613ZM111.248 169.824C110.257 168.339 110.301 167.372 110.524 165.622C111.238 164.433 111.816 164.301 113.141 163.869C114.533 163.841 114.533 163.841 115.786 164.564C116.871 165.742 117.206 166.255 117.206 167.849C116.228 169.895 116.228 169.895 114.978 170.52C113.4 170.691 112.589 170.706 111.248 169.824ZM113.391 217.49C110.583 216.914 110.103 214.981 110.523 212.371C111.442 211.258 111.442 211.258 112.751 210.59C114.393 210.618 114.394 210.618 115.87 211.035C116.978 212.697 117.002 213.521 116.76 215.487C115.683 216.687 114.975 217.181 113.391 217.49ZM43.397 248.968C41.2868 238.986 44.2615 229.303 50.4468 221.388C63.4024 206.25 85.4572 202.391 104.147 199.737C104.58 199.675 105.014 199.613 105.46 199.549C106.704 199.372 107.948 199.201 109.192 199.031C109.569 198.978 109.947 198.924 110.335 198.869C110.686 198.823 111.037 198.776 111.398 198.729C111.703 198.687 112.009 198.645 112.324 198.602C113.289 198.565 114.057 198.738 114.978 199.014C114.6 199.116 114.222 199.219 113.833 199.325C81.7535 207.625 81.7532 207.626 57.9273 229.223C52.9937 238.285 51.2824 248.126 54.2193 258.235C56.028 263.73 59.2003 268.602 62.4107 273.366C62.7473 273.87 63.0834 274.375 63.4195 274.879C63.6744 275.261 63.9293 275.643 64.1919 276.037C55.5031 272.029 48.3163 263.312 44.897 254.494C44.4401 253.076 44.0488 251.662 43.6997 250.214C43.55 249.597 43.5498 249.597 43.397 248.968ZM52.8121 162.415C37.8338 148.502 41.419 126.752 53.9458 112.641C56.6009 109.923 59.5876 107.471 62.855 105.518L63.7466 105.518C63.1193 106.919 62.2893 108.11 61.396 109.354C59.2882 112.332 57.6404 115.383 56.2007 118.734C56.0382 119.109 55.876 119.484 55.7085 119.87C53.7381 124.618 52.8298 129.096 52.8873 134.234C52.8821 134.696 52.8769 135.158 52.8716 135.634C52.8891 140.316 53.8624 144.606 56.0337 148.76C56.189 149.062 56.3445 149.364 56.5044 149.675C57.888 152.284 59.5142 154.543 61.5191 156.718C61.8423 157.076 62.1655 157.435 62.4986 157.805C69.9959 165.718 80.0517 170.809 90.1734 174.532C91.4499 175.003 92.7212 175.486 93.9927 175.97C100.586 178.442 107.259 180.382 114.086 182.096C112.36 182.708 110.868 182.433 109.077 182.19C108.6 182.127 108.599 182.127 108.113 182.062C107.069 181.92 106.025 181.772 104.982 181.622C104.623 181.571 104.263 181.519 103.893 181.467C86.381 178.956 67.6108 175.443 53.9458 163.396C53.572 163.072 53.1972 162.749 52.8121 162.415ZM52.8931 200.849C53.1059 199.607 53.3794 199.324 54.3912 198.568C55.4912 198.321 56.5126 198.153 57.6275 198.029C58.1334 197.967 58.1339 197.967 58.6499 197.903C59.7911 197.766 60.9334 197.639 62.0757 197.512C62.6692 197.443 62.6695 197.442 63.2749 197.372C72.7667 196.273 82.2952 195.554 91.8218 194.834C92.2699 194.8 92.2701 194.8 92.7271 194.766C94.1388 194.659 95.5515 194.553 96.9634 194.449C99.5659 194.255 102.145 194.011 104.732 193.671C105.548 193.644 106.366 193.632 107.182 193.644C107.563 193.648 107.945 193.651 108.337 193.655C108.618 193.66 108.898 193.666 109.187 193.671L109.187 194.116C108.921 194.163 108.654 194.209 108.379 194.257C93.4783 196.881 78.7246 200.241 63.9917 203.67C63.5522 203.772 63.1125 203.874 62.6597 203.979C61.8395 204.169 61.0194 204.359 60.1998 204.552C58.1196 205.033 56.0647 205.426 53.9458 205.692C53.192 204.375 52.9233 203.396 52.9156 201.88C52.9044 201.37 52.9045 201.369 52.8931 200.849ZM52.6099 193.227C51.6674 191.125 52.182 188.916 53.4937 187.114C55.3657 185.704 56.637 185.917 58.896 186.143C59.2894 186.172 59.6831 186.203 60.0884 186.233C61.3089 186.328 62.5275 186.437 63.7466 186.548C64.4623 186.604 65.1782 186.658 65.8941 186.711C68.0341 186.872 70.1721 187.056 72.3101 187.242C73.0961 187.309 73.8825 187.376 74.6685 187.443C76.2994 187.583 77.9303 187.723 79.5611 187.864C81.6253 188.043 83.69 188.22 85.7544 188.396C87.3725 188.534 88.991 188.672 90.6089 188.812C91.369 188.877 92.1291 188.942 92.8892 189.007C98.1806 189.46 103.462 189.982 108.742 190.555L108.742 191.445C108.388 191.465 108.034 191.485 107.669 191.505C100.24 191.924 92.8191 192.407 85.4019 193.007C85.04 193.036 84.6781 193.066 84.3052 193.096C80.9625 193.366 77.6201 193.64 74.2779 193.915C72.4182 194.068 70.5578 194.219 68.6978 194.368C68.0038 194.424 67.3096 194.482 66.6158 194.54C63.3921 194.81 60.1662 195.051 56.9322 195.153C56.4828 195.169 56.0329 195.184 55.5699 195.2C54.061 194.953 53.5574 194.396 52.6099 193.227ZM53.0542 182.096C52.9081 180.984 52.9081 180.984 52.9429 179.675C52.9533 179.028 52.9539 179.028 52.9644 178.368C53.0549 177.198 53.0551 177.198 53.5005 175.862C56.1462 176.153 58.7027 176.622 61.2994 177.2C61.9049 177.333 61.9054 177.332 62.523 177.468C63.3895 177.658 64.2563 177.849 65.1226 178.04C67.431 178.55 69.7408 179.054 72.0503 179.559C72.7501 179.712 72.7505 179.711 73.4644 179.867C85.1898 182.43 96.9309 184.85 108.741 186.993L108.741 187.438C101.262 187.072 93.7949 186.518 86.3277 185.964C85.9982 185.939 85.6681 185.915 85.3287 185.89C77.1609 185.283 68.9958 184.664 60.8511 183.793C60.5148 183.758 60.1781 183.723 59.8316 183.688C58.9132 183.591 57.9952 183.488 57.0777 183.384C56.3377 183.3 56.3375 183.3 55.5826 183.215C54.3914 182.986 54.3907 182.986 53.0542 182.096ZM89.9019 165.73C81.5451 158.871 77.639 147.196 84.1333 137.77C86.5857 134.742 89.7034 132.783 93.5943 132.23C97.8651 132.152 101.563 132.807 104.777 135.763C107.126 138.318 108.239 140.73 108.295 144.252C107.943 147.548 106.787 149.982 104.258 152.183C102.95 153.156 102.949 153.156 101.613 153.602C101.666 153.252 101.719 152.902 101.773 152.542C102.217 149.393 102.217 149.393 101.335 146.422C100.199 145.048 99.7879 144.561 98.0494 144.252C95.8605 144.191 94.408 144.465 92.5367 145.643C90.1419 148.264 89.7714 150.525 89.8794 153.998C90.6214 160.782 95.385 166.138 100.277 170.52C101.293 171.328 102.302 172.042 103.395 172.746C103.101 172.893 102.807 173.04 102.504 173.191C101.356 172.709 100.269 172.2 99.1626 171.633C98.8406 171.469 98.5189 171.304 98.1871 171.136C95.6028 169.796 93.2098 168.318 90.9214 166.513C90.585 166.255 90.2485 165.996 89.9019 165.73ZM86.8003 246.458C79.4083 240.638 79.2944 229.429 84.0494 221.953C84.8058 220.928 85.6069 219.99 86.4664 219.049C86.754 218.721 87.042 218.392 87.3384 218.054C91.234 213.865 96.7293 210.419 102.058 208.363C102.499 208.584 102.5 208.584 102.95 208.809C102.546 209.132 102.142 209.457 101.726 209.79C96.2725 214.251 92.3001 218.921 90.0298 225.728C89.7463 229.124 89.6191 232.298 91.8121 235.077C93.3307 236.489 94.4852 236.968 96.5171 237.053C98.2404 236.969 99.3761 236.664 100.722 235.522C101.764 233.955 101.705 232.584 101.668 230.736C101.66 230.215 101.652 229.694 101.644 229.157C101.634 228.76 101.623 228.362 101.613 227.953C104.419 228.98 106.015 230.659 107.404 233.296C108.396 236.271 108.263 239.487 106.959 242.34C105.283 245.274 102.8 247.658 99.5279 248.684C94.9901 249.539 90.7081 248.953 86.8003 246.458ZM42.3628 167.849C46.8177 168.294 46.8178 168.294 48.1919 169.186C49.3555 171.005 49.3592 172.384 49.3335 174.504C49.3394 175.099 49.3393 175.1 49.3453 175.707C49.355 177.016 49.3489 178.325 49.3414 179.635C49.3429 180.546 49.3444 181.456 49.3472 182.367C49.3505 184.275 49.3459 186.182 49.3355 188.09C49.3228 190.536 49.33 192.982 49.3433 195.428C49.3513 197.308 49.3491 199.188 49.3433 201.068C49.3418 201.97 49.344 202.873 49.3492 203.774C49.3548 205.034 49.3459 206.293 49.3335 207.553C49.3403 208.112 49.3403 208.113 49.3472 208.684C49.3174 210.317 49.1839 211.296 48.1919 212.616C46.8179 213.261 46.8176 213.261 42.3628 213.261L42.3628 167.849ZM29.8892 159.39C32.9338 160.868 32.9343 160.868 34.3433 161.615C34.7031 161.774 35.0634 161.933 35.4341 162.096C38.5371 163.63 38.537 163.63 39.2242 165.357C39.3987 166.701 39.4313 167.987 39.4175 169.342C39.4296 169.847 39.4422 170.353 39.4546 170.874C39.4878 172.544 39.4871 174.213 39.4839 175.884C39.4937 177.047 39.5045 178.211 39.5162 179.374C39.5365 181.813 39.5361 184.251 39.5259 186.689C39.5146 189.5 39.5461 192.309 39.5982 195.119C39.6466 197.832 39.6548 200.543 39.648 203.256C39.65 204.405 39.6632 205.555 39.688 206.704C39.8559 215.47 39.8563 215.471 38.0796 217.742C36.161 219.424 34.0298 220.359 31.6705 221.275C31.2295 221.569 30.7888 221.863 30.3345 222.166C30.2762 214.836 30.2175 207.505 30.1597 200.175C30.1329 196.771 30.1058 193.366 30.0787 189.962C30.055 186.993 30.0317 184.023 30.0083 181.054C29.996 179.484 29.9838 177.914 29.9712 176.344C29.9571 174.585 29.943 172.825 29.9292 171.065C29.9251 170.553 29.9218 170.041 29.9175 169.514C29.8916 166.139 29.8846 162.764 29.8892 159.39ZM2.7144 195.452C0.331092 193.485 -0.162333 192.277 0.0415473 189.22C0.744196 187.447 1.11509 186.723 2.7144 185.657C6.7605 185.555 10.8207 186.462 14.7701 187.244C15.8238 187.45 16.8779 187.654 17.9322 187.857C18.6187 187.993 18.6187 187.994 19.3189 188.132C20.6215 188.377 20.6221 188.377 22.316 188.329C23.2783 187.035 23.2776 187.034 24.0972 185.657C24.3912 185.51 24.6859 185.363 24.9888 185.212C24.3617 183.87 23.6238 182.72 22.7408 181.532C22.4744 181.173 22.2076 180.813 21.9331 180.442C21.6552 180.07 21.3767 179.697 21.0904 179.313C20.8193 178.948 20.5484 178.582 20.2691 178.205C19.2107 176.779 18.1502 175.355 17.0787 173.938C16.8383 173.621 16.5978 173.303 16.3501 172.976C16.1364 172.695 15.9229 172.414 15.7027 172.124C14.6502 170.665 14.5671 169.639 14.7427 167.849C15.5445 166.647 16.1165 165.827 17.4156 165.178C18.2205 165.101 19.0291 165.058 19.8374 165.038C20.4842 165.013 20.4846 165.014 21.1441 164.988C22.3151 165.178 22.316 165.177 23.0074 165.915C23.7549 167.124 24.0889 168.211 24.4488 169.586C24.5832 170.092 24.7176 170.599 24.856 171.121C24.9915 171.648 25.1275 172.176 25.2671 172.719C25.4061 173.244 25.5449 173.769 25.688 174.311C26.0575 175.717 26.4248 177.122 26.771 178.534C26.898 179.037 26.8974 179.037 27.0269 179.55C27.3099 181.363 27.3252 183.167 27.354 185C27.3608 185.414 27.3676 185.829 27.3746 186.256C27.517 196.968 27.193 206.184 22.316 215.933C17.5317 216.315 17.5312 216.316 15.8003 214.959C14.2202 213.089 14.2198 213.089 14.2964 211.48C15.461 209.237 16.8331 207.294 18.4175 205.331C18.631 205.063 18.845 204.795 19.065 204.519C19.7009 203.721 20.3394 202.925 20.979 202.131C21.6566 201.287 22.3348 200.443 23.0123 199.599C23.2884 199.257 23.5646 198.915 23.8492 198.563C24.4104 197.848 24.9295 197.099 25.4341 196.343C24.9931 196.049 24.5516 195.755 24.0972 195.452C23.8337 195.78 23.5708 196.108 23.2994 196.445C22.9474 196.88 22.5946 197.314 22.232 197.762C21.8857 198.19 21.5399 198.62 21.1831 199.062C19.319 201.256 17.2235 203.193 15.104 205.136C14.8666 205.356 14.629 205.575 14.3843 205.802C12.1312 207.869 12.1315 207.87 10.1763 208.058C8.17738 207.891 7.34264 207.441 5.83256 206.138C4.8451 204.673 4.48859 203.843 4.52397 202.075C5.01843 200.56 5.51278 200.042 6.72319 199.015C8.06195 198.37 8.0621 198.369 9.61381 197.784C9.89062 197.679 10.1675 197.574 10.4527 197.466C11.0363 197.245 11.6213 197.027 12.2066 196.812C13.0944 196.484 13.9787 196.147 14.8628 195.81C17.4973 194.82 19.9464 193.995 22.7613 193.672C22.4673 193.231 22.1735 192.79 21.8706 192.336C21.4119 192.459 20.9527 192.581 20.48 192.708C17.6936 193.403 14.8672 193.889 12.0415 194.396C11.2125 194.549 11.2125 194.549 10.3667 194.705C9.83019 194.801 9.29357 194.898 8.74077 194.997C8.2572 195.085 7.77317 195.172 7.27495 195.263C5.72111 195.468 4.27944 195.554 2.7144 195.452ZM4.94194 180.76C4.34229 178.962 4.74781 178.073 5.38725 176.308C6.36908 174.836 7.21609 173.687 8.9517 173.191C10.8482 173.272 11.825 173.44 13.3208 174.642C13.7073 175.063 14.0936 175.484 14.4917 175.918C15.8947 177.411 17.29 178.859 18.8638 180.176C20.6501 181.695 22.1557 183.412 23.6529 185.212C23.2118 185.947 22.7704 186.682 22.316 187.438C18.7773 186.765 15.4966 185.605 12.1255 184.35C11.5812 184.153 11.0369 183.955 10.4761 183.752C9.95584 183.559 9.43501 183.367 8.89897 183.169C8.42757 182.995 7.95594 182.821 7.47026 182.642C6.33201 182.12 5.70318 181.738 4.94194 180.76Z" fill="#515C4F"/>
</svg>
